<svg xmlns="http://www.w3.org/2000/svg" version="1.1" xmlns:xlink="http://www.w3.org/1999/xlink" xmlns:svgjs="http://svgjs.dev/svgjs" width="1440" height="560" preserveAspectRatio="none" viewBox="0 0 1440 560"><g mask="url(&quot;#SvgjsMask1000&quot;)" fill="none"><rect width="1440" height="560" x="0" y="0" fill="#0e2a47"></rect><path d="M-64.83 340L-64.83 340" stroke="#132e65" stroke-width="1.5"></path><path d="M-64.83 340L43.18 386.71" stroke="#132e65" stroke-width="1.5"></path><path d="M-64.83 340L-60.5 526.78" stroke="#132e65" stroke-width="1.5"></path><path d="M-64.83 340L96.39 519.26" stroke="#132e65" stroke-width="1.5"></path><path d="M-64.83 340L210.59 406.65" stroke="#132e65" stroke-width="1.5"></path><path d="M-64.83 340L203.89 557.33" stroke="#132e65" stroke-width="1.5"></path><path d="M-60.5 526.78L-60.5 526.78" stroke="#132e65" stroke-width="1.5"></path><path d="M-60.5 526.78L96.39 519.26" stroke="#132e65" stroke-width="1.5"></path><path d="M-60.5 526.78L-107.38 688.22" stroke="#132e65" stroke-width="1.5"></path><path d="M-107.38 688.22L-107.38 688.22" stroke="#132e65" stroke-width="1.5"></path><path d="M-107.38 688.22L78.98 671.77" stroke="#132e65" stroke-width="1.5"></path><path d="M-107.38 688.22L96.39 519.26" stroke="#132e65" stroke-width="1.5"></path><path d="M-107.38 688.22L43.18 386.71" stroke="#132e65" stroke-width="1.5"></path><path d="M43.18 386.71L43.18 386.71" stroke="#132e65" stroke-width="1.5"></path><path d="M43.18 386.71L96.39 519.26" stroke="#132e65" stroke-width="1.5"></path><path d="M96.39 519.26L96.39 519.26" stroke="#132e65" stroke-width="1.5"></path><path d="M96.39 519.26L203.89 557.33" stroke="#132e65" stroke-width="1.5"></path><path d="M96.39 519.26L78.98 671.77" stroke="#132e65" stroke-width="1.5"></path><path d="M96.39 519.26L210.59 406.65" stroke="#132e65" stroke-width="1.5"></path><path d="M78.98 671.77L78.98 671.77" stroke="#132e65" stroke-width="1.5"></path><path d="M78.98 671.77L231.67 660.2" stroke="#132e65" stroke-width="1.5"></path><path d="M78.98 671.77L203.89 557.33" stroke="#132e65" stroke-width="1.5"></path><path d="M78.98 671.77L-60.5 526.78" stroke="#132e65" stroke-width="1.5"></path><path d="M78.98 671.77L43.18 386.71" stroke="#132e65" stroke-width="1.5"></path><path d="M210.59 406.65L210.59 406.65" stroke="#132e65" stroke-width="1.5"></path><path d="M210.59 406.65L203.89 557.33" stroke="#132e65" stroke-width="1.5"></path><path d="M210.59 406.65L43.18 386.71" stroke="#132e65" stroke-width="1.5"></path><path d="M210.59 406.65L407.27 396.22" stroke="#132e65" stroke-width="1.5"></path><path d="M203.89 557.33L203.89 557.33" stroke="#132e65" stroke-width="1.5"></path><path d="M203.89 557.33L231.67 660.2" stroke="#132e65" stroke-width="1.5"></path><path d="M231.67 660.2L231.67 660.2" stroke="#132e65" stroke-width="1.5"></path><path d="M231.67 660.2L410.62 696.25" stroke="#132e65" stroke-width="1.5"></path><path d="M231.67 660.2L96.39 519.26" stroke="#132e65" stroke-width="1.5"></path><path d="M231.67 660.2L386.79 502.64" stroke="#132e65" stroke-width="1.5"></path><path d="M231.67 660.2L210.59 406.65" stroke="#132e65" stroke-width="1.5"></path><path d="M407.27 396.22L407.27 396.22" stroke="#132e65" stroke-width="1.5"></path><path d="M407.27 396.22L386.79 502.64" stroke="#132e65" stroke-width="1.5"></path><path d="M407.27 396.22L517.58 399.38" stroke="#132e65" stroke-width="1.5"></path><path d="M407.27 396.22L492.67 491.42" stroke="#132e65" stroke-width="1.5"></path><path d="M407.27 396.22L203.89 557.33" stroke="#132e65" stroke-width="1.5"></path><path d="M386.79 502.64L386.79 502.64" stroke="#132e65" stroke-width="1.5"></path><path d="M386.79 502.64L492.67 491.42" stroke="#132e65" stroke-width="1.5"></path><path d="M386.79 502.64L517.58 399.38" stroke="#132e65" stroke-width="1.5"></path><path d="M386.79 502.64L203.89 557.33" stroke="#132e65" stroke-width="1.5"></path><path d="M386.79 502.64L410.62 696.25" stroke="#132e65" stroke-width="1.5"></path><path d="M386.79 502.64L502 662.53" stroke="#132e65" stroke-width="1.5"></path><path d="M410.62 696.25L410.62 696.25" stroke="#132e65" stroke-width="1.5"></path><path d="M410.62 696.25L502 662.53" stroke="#132e65" stroke-width="1.5"></path><path d="M410.62 696.25L492.67 491.42" stroke="#132e65" stroke-width="1.5"></path><path d="M517.58 399.38L517.58 399.38" stroke="#132e65" stroke-width="1.5"></path><path d="M517.58 399.38L492.67 491.42" stroke="#132e65" stroke-width="1.5"></path><path d="M492.67 491.42L492.67 491.42" stroke="#132e65" stroke-width="1.5"></path><path d="M492.67 491.42L502 662.53" stroke="#132e65" stroke-width="1.5"></path><path d="M492.67 491.42L698.14 549.14" stroke="#132e65" stroke-width="1.5"></path><path d="M502 662.53L502 662.53" stroke="#132e65" stroke-width="1.5"></path><path d="M502 662.53L698.14 549.14" stroke="#132e65" stroke-width="1.5"></path><path d="M502 662.53L517.58 399.38" stroke="#132e65" stroke-width="1.5"></path><path d="M502 662.53L231.67 660.2" stroke="#132e65" stroke-width="1.5"></path><path d="M702.16 212.39L702.16 212.39" stroke="#132e65" stroke-width="1.5"></path><path d="M702.16 212.39L817.72 252.05" stroke="#132e65" stroke-width="1.5"></path><path d="M702.16 212.39L697.47 397.82" stroke="#132e65" stroke-width="1.5"></path><path d="M697.47 397.82L697.47 397.82" stroke="#132e65" stroke-width="1.5"></path><path d="M697.47 397.82L807.93 379.02" stroke="#132e65" stroke-width="1.5"></path><path d="M697.47 397.82L698.14 549.14" stroke="#132e65" stroke-width="1.5"></path><path d="M698.14 549.14L698.14 549.14" stroke="#132e65" stroke-width="1.5"></path><path d="M698.14 549.14L792.62 516.57" stroke="#132e65" stroke-width="1.5"></path><path d="M698.14 549.14L807.93 379.02" stroke="#132e65" stroke-width="1.5"></path><path d="M860.86 39.2L860.86 39.2" stroke="#132e65" stroke-width="1.5"></path><path d="M860.86 39.2L965.41 -102.87" stroke="#132e65" stroke-width="1.5"></path><path d="M860.86 39.2L955.38 206.35" stroke="#132e65" stroke-width="1.5"></path><path d="M817.72 252.05L817.72 252.05" stroke="#132e65" stroke-width="1.5"></path><path d="M817.72 252.05L807.93 379.02" stroke="#132e65" stroke-width="1.5"></path><path d="M817.72 252.05L955.38 206.35" stroke="#132e65" stroke-width="1.5"></path><path d="M817.72 252.05L697.47 397.82" stroke="#132e65" stroke-width="1.5"></path><path d="M817.72 252.05L957.46 393.81" stroke="#132e65" stroke-width="1.5"></path><path d="M807.93 379.02L807.93 379.02" stroke="#132e65" stroke-width="1.5"></path><path d="M807.93 379.02L792.62 516.57" stroke="#132e65" stroke-width="1.5"></path><path d="M807.93 379.02L957.46 393.81" stroke="#132e65" stroke-width="1.5"></path><path d="M792.62 516.57L792.62 516.57" stroke="#132e65" stroke-width="1.5"></path><path d="M965.41 -102.87L965.41 -102.87" stroke="#132e65" stroke-width="1.5"></path><path d="M965.41 -102.87L1093.97 84.32" stroke="#132e65" stroke-width="1.5"></path><path d="M955.38 206.35L955.38 206.35" stroke="#132e65" stroke-width="1.5"></path><path d="M955.38 206.35L1089.95 240.15" stroke="#132e65" stroke-width="1.5"></path><path d="M955.38 206.35L1093.97 84.32" stroke="#132e65" stroke-width="1.5"></path><path d="M955.38 206.35L957.46 393.81" stroke="#132e65" stroke-width="1.5"></path><path d="M957.46 393.81L957.46 393.81" stroke="#132e65" stroke-width="1.5"></path><path d="M957.46 393.81L1118.65 337.98" stroke="#132e65" stroke-width="1.5"></path><path d="M986.65 706.87L986.65 706.87" stroke="#132e65" stroke-width="1.5"></path><path d="M986.65 706.87L1123.38 692.37" stroke="#132e65" stroke-width="1.5"></path><path d="M986.65 706.87L1099.33 522.56" stroke="#132e65" stroke-width="1.5"></path><path d="M986.65 706.87L792.62 516.57" stroke="#132e65" stroke-width="1.5"></path><path d="M986.65 706.87L1294.24 646.91" stroke="#132e65" stroke-width="1.5"></path><path d="M1093.97 84.32L1093.97 84.32" stroke="#132e65" stroke-width="1.5"></path><path d="M1093.97 84.32L1089.95 240.15" stroke="#132e65" stroke-width="1.5"></path><path d="M1093.97 84.32L1272.22 110.63" stroke="#132e65" stroke-width="1.5"></path><path d="M1089.95 240.15L1089.95 240.15" stroke="#132e65" stroke-width="1.5"></path><path d="M1089.95 240.15L1118.65 337.98" stroke="#132e65" stroke-width="1.5"></path><path d="M1089.95 240.15L1268.14 261.56" stroke="#132e65" stroke-width="1.5"></path><path d="M1089.95 240.15L957.46 393.81" stroke="#132e65" stroke-width="1.5"></path><path d="M1089.95 240.15L1272.22 110.63" stroke="#132e65" stroke-width="1.5"></path><path d="M1118.65 337.98L1118.65 337.98" stroke="#132e65" stroke-width="1.5"></path><path d="M1118.65 337.98L1268.14 261.56" stroke="#132e65" stroke-width="1.5"></path><path d="M1099.33 522.56L1099.33 522.56" stroke="#132e65" stroke-width="1.5"></path><path d="M1099.33 522.56L1123.38 692.37" stroke="#132e65" stroke-width="1.5"></path><path d="M1099.33 522.56L1118.65 337.98" stroke="#132e65" stroke-width="1.5"></path><path d="M1099.33 522.56L957.46 393.81" stroke="#132e65" stroke-width="1.5"></path><path d="M1099.33 522.56L1274.01 406.67" stroke="#132e65" stroke-width="1.5"></path><path d="M1099.33 522.56L1309.34 511.8" stroke="#132e65" stroke-width="1.5"></path><path d="M1123.38 692.37L1123.38 692.37" stroke="#132e65" stroke-width="1.5"></path><path d="M1246.33 -58.13L1246.33 -58.13" stroke="#132e65" stroke-width="1.5"></path><path d="M1246.33 -58.13L1389.49 -85.09" stroke="#132e65" stroke-width="1.5"></path><path d="M1246.33 -58.13L1272.22 110.63" stroke="#132e65" stroke-width="1.5"></path><path d="M1246.33 -58.13L1093.97 84.32" stroke="#132e65" stroke-width="1.5"></path><path d="M1272.22 110.63L1272.22 110.63" stroke="#132e65" stroke-width="1.5"></path><path d="M1272.22 110.63L1412.58 93.96" stroke="#132e65" stroke-width="1.5"></path><path d="M1272.22 110.63L1268.14 261.56" stroke="#132e65" stroke-width="1.5"></path><path d="M1268.14 261.56L1268.14 261.56" stroke="#132e65" stroke-width="1.5"></path><path d="M1268.14 261.56L1274.01 406.67" stroke="#132e65" stroke-width="1.5"></path><path d="M1268.14 261.56L1422.17 357.34" stroke="#132e65" stroke-width="1.5"></path><path d="M1268.14 261.56L1451.61 191.75" stroke="#132e65" stroke-width="1.5"></path><path d="M1274.01 406.67L1274.01 406.67" stroke="#132e65" stroke-width="1.5"></path><path d="M1274.01 406.67L1309.34 511.8" stroke="#132e65" stroke-width="1.5"></path><path d="M1274.01 406.67L1422.17 357.34" stroke="#132e65" stroke-width="1.5"></path><path d="M1274.01 406.67L1118.65 337.98" stroke="#132e65" stroke-width="1.5"></path><path d="M1309.34 511.8L1309.34 511.8" stroke="#132e65" stroke-width="1.5"></path><path d="M1309.34 511.8L1294.24 646.91" stroke="#132e65" stroke-width="1.5"></path><path d="M1309.34 511.8L1458.9 509.05" stroke="#132e65" stroke-width="1.5"></path><path d="M1309.34 511.8L1435.22 643.36" stroke="#132e65" stroke-width="1.5"></path><path d="M1294.24 646.91L1294.24 646.91" stroke="#132e65" stroke-width="1.5"></path><path d="M1294.24 646.91L1435.22 643.36" stroke="#132e65" stroke-width="1.5"></path><path d="M1389.49 -85.09L1389.49 -85.09" stroke="#132e65" stroke-width="1.5"></path><path d="M1389.49 -85.09L1538.91 -55.67" stroke="#132e65" stroke-width="1.5"></path><path d="M1389.49 -85.09L1412.58 93.96" stroke="#132e65" stroke-width="1.5"></path><path d="M1389.49 -85.09L1272.22 110.63" stroke="#132e65" stroke-width="1.5"></path><path d="M1412.58 93.96L1412.58 93.96" stroke="#132e65" stroke-width="1.5"></path><path d="M1412.58 93.96L1451.61 191.75" stroke="#132e65" stroke-width="1.5"></path><path d="M1451.61 191.75L1451.61 191.75" stroke="#132e65" stroke-width="1.5"></path><path d="M1451.61 191.75L1422.17 357.34" stroke="#132e65" stroke-width="1.5"></path><path d="M1422.17 357.34L1422.17 357.34" stroke="#132e65" stroke-width="1.5"></path><path d="M1422.17 357.34L1458.9 509.05" stroke="#132e65" stroke-width="1.5"></path><path d="M1422.17 357.34L1594.03 347.85" stroke="#132e65" stroke-width="1.5"></path><path d="M1458.9 509.05L1458.9 509.05" stroke="#132e65" stroke-width="1.5"></path><path d="M1458.9 509.05L1553.32 492.88" stroke="#132e65" stroke-width="1.5"></path><path d="M1458.9 509.05L1435.22 643.36" stroke="#132e65" stroke-width="1.5"></path><path d="M1458.9 509.05L1583.83 654.52" stroke="#132e65" stroke-width="1.5"></path><path d="M1458.9 509.05L1594.03 347.85" stroke="#132e65" stroke-width="1.5"></path><path d="M1435.22 643.36L1435.22 643.36" stroke="#132e65" stroke-width="1.5"></path><path d="M1435.22 643.36L1583.83 654.52" stroke="#132e65" stroke-width="1.5"></path><path d="M1435.22 643.36L1553.32 492.88" stroke="#132e65" stroke-width="1.5"></path><path d="M1435.22 643.36L1422.17 357.34" stroke="#132e65" stroke-width="1.5"></path><path d="M1538.91 -55.67L1538.91 -55.67" stroke="#132e65" stroke-width="1.5"></path><path d="M1538.91 -55.67L1412.58 93.96" stroke="#132e65" stroke-width="1.5"></path><path d="M1538.91 -55.67L1451.61 191.75" stroke="#132e65" stroke-width="1.5"></path><path d="M1538.91 -55.67L1246.33 -58.13" stroke="#132e65" stroke-width="1.5"></path><path d="M1538.91 -55.67L1272.22 110.63" stroke="#132e65" stroke-width="1.5"></path><path d="M1538.91 -55.67L1594.03 347.85" stroke="#132e65" stroke-width="1.5"></path><path d="M1594.03 347.85L1594.03 347.85" stroke="#132e65" stroke-width="1.5"></path><path d="M1594.03 347.85L1553.32 492.88" stroke="#132e65" stroke-width="1.5"></path><path d="M1594.03 347.85L1451.61 191.75" stroke="#132e65" stroke-width="1.5"></path><path d="M1594.03 347.85L1583.83 654.52" stroke="#132e65" stroke-width="1.5"></path><path d="M1553.32 492.88L1553.32 492.88" stroke="#132e65" stroke-width="1.5"></path><path d="M1553.32 492.88L1583.83 654.52" stroke="#132e65" stroke-width="1.5"></path><path d="M1583.83 654.52L1583.83 654.52" stroke="#132e65" stroke-width="1.5"></path><circle r="5" cx="-64.83" cy="340" fill="#132e65"></circle><circle r="5" cx="-60.5" cy="526.78" fill="#132e65"></circle><circle r="5" cx="-107.38" cy="688.22" fill="#132e65"></circle><circle r="5" cx="43.18" cy="386.71" fill="#132e65"></circle><circle r="5" cx="96.39" cy="519.26" fill="#132e65"></circle><circle r="5" cx="78.98" cy="671.77" fill="#132e65"></circle><circle r="5" cx="210.59" cy="406.65" fill="#132e65"></circle><circle r="5" cx="203.89" cy="557.33" fill="#132e65"></circle><circle r="5" cx="231.67" cy="660.2" fill="#132e65"></circle><circle r="5" cx="407.27" cy="396.22" fill="#132e65"></circle><circle r="5" cx="386.79" cy="502.64" fill="#132e65"></circle><circle r="5" cx="410.62" cy="696.25" fill="#132e65"></circle><circle r="5" cx="517.58" cy="399.38" fill="#132e65"></circle><circle r="5" cx="492.67" cy="491.42" fill="#132e65"></circle><circle r="5" cx="502" cy="662.53" fill="#132e65"></circle><circle r="5" cx="702.16" cy="212.39" fill="#132e65"></circle><circle r="5" cx="697.47" cy="397.82" fill="#132e65"></circle><circle r="5" cx="698.14" cy="549.14" fill="#132e65"></circle><circle r="5" cx="860.86" cy="39.2" fill="#132e65"></circle><circle r="5" cx="817.72" cy="252.05" fill="#132e65"></circle><circle r="5" cx="807.93" cy="379.02" fill="#132e65"></circle><circle r="5" cx="792.62" cy="516.57" fill="#132e65"></circle><circle r="5" cx="965.41" cy="-102.87" fill="#132e65"></circle><circle r="5" cx="955.38" cy="206.35" fill="#132e65"></circle><circle r="5" cx="957.46" cy="393.81" fill="#132e65"></circle><circle r="5" cx="986.65" cy="706.87" fill="#132e65"></circle><circle r="5" cx="1093.97" cy="84.32" fill="#132e65"></circle><circle r="5" cx="1089.95" cy="240.15" fill="#132e65"></circle><circle r="5" cx="1118.65" cy="337.98" fill="#132e65"></circle><circle r="5" cx="1099.33" cy="522.56" fill="#132e65"></circle><circle r="5" cx="1123.38" cy="692.37" fill="#132e65"></circle><circle r="5" cx="1246.33" cy="-58.13" fill="#132e65"></circle><circle r="5" cx="1272.22" cy="110.63" fill="#132e65"></circle><circle r="5" cx="1268.14" cy="261.56" fill="#132e65"></circle><circle r="5" cx="1274.01" cy="406.67" fill="#132e65"></circle><circle r="5" cx="1309.34" cy="511.8" fill="#132e65"></circle><circle r="5" cx="1294.24" cy="646.91" fill="#132e65"></circle><circle r="5" cx="1389.49" cy="-85.09" fill="#132e65"></circle><circle r="5" cx="1412.58" cy="93.96" fill="#132e65"></circle><circle r="5" cx="1451.61" cy="191.75" fill="#132e65"></circle><circle r="5" cx="1422.17" cy="357.34" fill="#132e65"></circle><circle r="5" cx="1458.9" cy="509.05" fill="#132e65"></circle><circle r="5" cx="1435.22" cy="643.36" fill="#132e65"></circle><circle r="5" cx="1538.91" cy="-55.67" fill="#132e65"></circle><circle r="5" cx="1594.03" cy="347.85" fill="#132e65"></circle><circle r="5" cx="1553.32" cy="492.88" fill="#132e65"></circle><circle r="5" cx="1583.83" cy="654.52" fill="#132e65"></circle><path d="M-99.73 696.01L-99.73 696.01" stroke="hsl(228.5, 77.2%, 51.5%)" stroke-width="1.5"></path><path d="M-99.73 696.01L-39.45 531.44" stroke="hsl(228.5, 77.2%, 51.5%)" stroke-width="1.5"></path><path d="M-99.73 696.01L92.28 671.07" stroke="hsl(228.5, 77.2%, 51.5%)" stroke-width="1.5"></path><path d="M-99.73 696.01L96.39 504.16" stroke="hsl(228.5, 77.2%, 51.5%)" stroke-width="1.5"></path><path d="M-99.73 696.01L199.98 642.22" stroke="hsl(228.5, 77.2%, 51.5%)" stroke-width="1.5"></path><path d="M-99.73 696.01L238.91 526.73" stroke="hsl(228.5, 77.2%, 51.5%)" stroke-width="1.5"></path><path d="M92.28 671.07L92.28 671.07" stroke="hsl(228.5, 77.2%, 51.5%)" stroke-width="1.5"></path><path d="M92.28 671.07L199.98 642.22" stroke="hsl(228.5, 77.2%, 51.5%)" stroke-width="1.5"></path><path d="M92.28 671.07L96.39 504.16" stroke="hsl(228.5, 77.2%, 51.5%)" stroke-width="1.5"></path><path d="M92.28 671.07L-39.45 531.44" stroke="hsl(228.5, 77.2%, 51.5%)" stroke-width="1.5"></path><path d="M554.59 678.95L554.59 678.95" stroke="hsl(228.5, 77.2%, 51.5%)" stroke-width="1.5"></path><path d="M554.59 678.95L666.01 693.7" stroke="hsl(228.5, 77.2%, 51.5%)" stroke-width="1.5"></path><path d="M554.59 678.95L677.72 548.8" stroke="hsl(228.5, 77.2%, 51.5%)" stroke-width="1.5"></path><path d="M554.59 678.95L552.01 493.53" stroke="hsl(228.5, 77.2%, 51.5%)" stroke-width="1.5"></path><path d="M554.59 678.95L393.18 539.53" stroke="hsl(228.5, 77.2%, 51.5%)" stroke-width="1.5"></path><path d="M677.72 548.8L677.72 548.8" stroke="hsl(228.5, 77.2%, 51.5%)" stroke-width="1.5"></path><path d="M677.72 548.8L552.01 493.53" stroke="hsl(228.5, 77.2%, 51.5%)" stroke-width="1.5"></path><path d="M677.72 548.8L666.01 693.7" stroke="hsl(228.5, 77.2%, 51.5%)" stroke-width="1.5"></path><path d="M677.72 548.8L673.53 398.89" stroke="hsl(228.5, 77.2%, 51.5%)" stroke-width="1.5"></path><path d="M677.72 548.8L843.15 510.08" stroke="hsl(228.5, 77.2%, 51.5%)" stroke-width="1.5"></path><path d="M677.72 548.8L862.12 646.58" stroke="hsl(228.5, 77.2%, 51.5%)" stroke-width="1.5"></path><path d="M666.01 693.7L666.01 693.7" stroke="hsl(228.5, 77.2%, 51.5%)" stroke-width="1.5"></path><path d="M666.01 693.7L862.12 646.58" stroke="hsl(228.5, 77.2%, 51.5%)" stroke-width="1.5"></path><path d="M979.14 658.2L979.14 658.2" stroke="hsl(228.5, 77.2%, 51.5%)" stroke-width="1.5"></path><path d="M979.14 658.2L862.12 646.58" stroke="hsl(228.5, 77.2%, 51.5%)" stroke-width="1.5"></path><path d="M979.14 658.2L947.23 493.95" stroke="hsl(228.5, 77.2%, 51.5%)" stroke-width="1.5"></path><path d="M979.14 658.2L843.15 510.08" stroke="hsl(228.5, 77.2%, 51.5%)" stroke-width="1.5"></path><path d="M1153.89 -98.95L1153.89 -98.95" stroke="hsl(228.5, 77.2%, 51.5%)" stroke-width="1.5"></path><path d="M1153.89 -98.95L1252.08 -88.83" stroke="hsl(228.5, 77.2%, 51.5%)" stroke-width="1.5"></path><path d="M1153.89 -98.95L1245.99 86.36" stroke="hsl(228.5, 77.2%, 51.5%)" stroke-width="1.5"></path><path d="M1153.89 -98.95L1146.52 195.6" stroke="hsl(228.5, 77.2%, 51.5%)" stroke-width="1.5"></path><path d="M1263.31 389.45L1263.31 389.45" stroke="hsl(228.5, 77.2%, 51.5%)" stroke-width="1.5"></path><path d="M1263.31 389.45L1249.82 509.31" stroke="hsl(228.5, 77.2%, 51.5%)" stroke-width="1.5"></path><path d="M1263.31 389.45L1406.8 379.81" stroke="hsl(228.5, 77.2%, 51.5%)" stroke-width="1.5"></path><path d="M1263.31 389.45L1274.1 243.46" stroke="hsl(228.5, 77.2%, 51.5%)" stroke-width="1.5"></path><path d="M1454.02 249.97L1454.02 249.97" stroke="hsl(228.5, 77.2%, 51.5%)" stroke-width="1.5"></path><path d="M1454.02 249.97L1578.17 233.05" stroke="hsl(228.5, 77.2%, 51.5%)" stroke-width="1.5"></path><path d="M1454.02 249.97L1406.8 379.81" stroke="hsl(228.5, 77.2%, 51.5%)" stroke-width="1.5"></path><path d="M1454.02 249.97L1543.56 395.95" stroke="hsl(228.5, 77.2%, 51.5%)" stroke-width="1.5"></path><path d="M1454.02 249.97L1274.1 243.46" stroke="hsl(228.5, 77.2%, 51.5%)" stroke-width="1.5"></path><path d="M1454.02 249.97L1447.21 66.31" stroke="hsl(228.5, 77.2%, 51.5%)" stroke-width="1.5"></path><path d="M1542.31 49.79L1542.31 49.79" stroke="hsl(228.5, 77.2%, 51.5%)" stroke-width="1.5"></path><path d="M1542.31 49.79L1447.21 66.31" stroke="hsl(228.5, 77.2%, 51.5%)" stroke-width="1.5"></path><path d="M1542.31 49.79L1563.85 -48.54" stroke="hsl(228.5, 77.2%, 51.5%)" stroke-width="1.5"></path><path d="M1542.31 49.79L1578.17 233.05" stroke="hsl(228.5, 77.2%, 51.5%)" stroke-width="1.5"></path><path d="M1542.31 49.79L1454.02 249.97" stroke="hsl(228.5, 77.2%, 51.5%)" stroke-width="1.5"></path><path d="M1578.17 233.05L1578.17 233.05" stroke="hsl(228.5, 77.2%, 51.5%)" stroke-width="1.5"></path><path d="M1578.17 233.05L1543.56 395.95" stroke="hsl(228.5, 77.2%, 51.5%)" stroke-width="1.5"></path><path d="M-39.45 531.44L-39.45 531.44" stroke="hsl(228.5, 77.2%, 51.5%)" stroke-width="1.5"></path><path d="M-39.45 531.44L96.39 504.16" stroke="hsl(228.5, 77.2%, 51.5%)" stroke-width="1.5"></path><path d="M-39.45 531.44L199.98 642.22" stroke="hsl(228.5, 77.2%, 51.5%)" stroke-width="1.5"></path><path d="M96.39 504.16L96.39 504.16" stroke="hsl(228.5, 77.2%, 51.5%)" stroke-width="1.5"></path><path d="M96.39 504.16L238.91 526.73" stroke="hsl(228.5, 77.2%, 51.5%)" stroke-width="1.5"></path><path d="M238.91 526.73L238.91 526.73" stroke="hsl(228.5, 77.2%, 51.5%)" stroke-width="1.5"></path><path d="M238.91 526.73L199.98 642.22" stroke="hsl(228.5, 77.2%, 51.5%)" stroke-width="1.5"></path><path d="M238.91 526.73L393.18 539.53" stroke="hsl(228.5, 77.2%, 51.5%)" stroke-width="1.5"></path><path d="M199.98 642.22L199.98 642.22" stroke="hsl(228.5, 77.2%, 51.5%)" stroke-width="1.5"></path><path d="M199.98 642.22L339.4 647.01" stroke="hsl(228.5, 77.2%, 51.5%)" stroke-width="1.5"></path><path d="M199.98 642.22L96.39 504.16" stroke="hsl(228.5, 77.2%, 51.5%)" stroke-width="1.5"></path><path d="M199.98 642.22L393.18 539.53" stroke="hsl(228.5, 77.2%, 51.5%)" stroke-width="1.5"></path><path d="M393.18 539.53L393.18 539.53" stroke="hsl(228.5, 77.2%, 51.5%)" stroke-width="1.5"></path><path d="M393.18 539.53L339.4 647.01" stroke="hsl(228.5, 77.2%, 51.5%)" stroke-width="1.5"></path><path d="M339.4 647.01L339.4 647.01" stroke="hsl(228.5, 77.2%, 51.5%)" stroke-width="1.5"></path><path d="M552.01 493.53L552.01 493.53" stroke="hsl(228.5, 77.2%, 51.5%)" stroke-width="1.5"></path><path d="M552.01 493.53L673.53 398.89" stroke="hsl(228.5, 77.2%, 51.5%)" stroke-width="1.5"></path><path d="M552.01 493.53L393.18 539.53" stroke="hsl(228.5, 77.2%, 51.5%)" stroke-width="1.5"></path><path d="M552.01 493.53L666.01 693.7" stroke="hsl(228.5, 77.2%, 51.5%)" stroke-width="1.5"></path><path d="M552.01 493.53L339.4 647.01" stroke="hsl(228.5, 77.2%, 51.5%)" stroke-width="1.5"></path><path d="M673.53 398.89L673.53 398.89" stroke="hsl(228.5, 77.2%, 51.5%)" stroke-width="1.5"></path><path d="M673.53 398.89L808.47 354.03" stroke="hsl(228.5, 77.2%, 51.5%)" stroke-width="1.5"></path><path d="M808.47 354.03L808.47 354.03" stroke="hsl(228.5, 77.2%, 51.5%)" stroke-width="1.5"></path><path d="M808.47 354.03L843.15 510.08" stroke="hsl(228.5, 77.2%, 51.5%)" stroke-width="1.5"></path><path d="M808.47 354.03L947.23 493.95" stroke="hsl(228.5, 77.2%, 51.5%)" stroke-width="1.5"></path><path d="M808.47 354.03L1011.23 410.75" stroke="hsl(228.5, 77.2%, 51.5%)" stroke-width="1.5"></path><path d="M808.47 354.03L991.66 238.44" stroke="hsl(228.5, 77.2%, 51.5%)" stroke-width="1.5"></path><path d="M808.47 354.03L677.72 548.8" stroke="hsl(228.5, 77.2%, 51.5%)" stroke-width="1.5"></path><path d="M843.15 510.08L843.15 510.08" stroke="hsl(228.5, 77.2%, 51.5%)" stroke-width="1.5"></path><path d="M843.15 510.08L947.23 493.95" stroke="hsl(228.5, 77.2%, 51.5%)" stroke-width="1.5"></path><path d="M843.15 510.08L862.12 646.58" stroke="hsl(228.5, 77.2%, 51.5%)" stroke-width="1.5"></path><path d="M843.15 510.08L1011.23 410.75" stroke="hsl(228.5, 77.2%, 51.5%)" stroke-width="1.5"></path><path d="M862.12 646.58L862.12 646.58" stroke="hsl(228.5, 77.2%, 51.5%)" stroke-width="1.5"></path><path d="M862.12 646.58L947.23 493.95" stroke="hsl(228.5, 77.2%, 51.5%)" stroke-width="1.5"></path><path d="M862.12 646.58L1011.23 410.75" stroke="hsl(228.5, 77.2%, 51.5%)" stroke-width="1.5"></path><path d="M991.66 238.44L991.66 238.44" stroke="hsl(228.5, 77.2%, 51.5%)" stroke-width="1.5"></path><path d="M991.66 238.44L1146.52 195.6" stroke="hsl(228.5, 77.2%, 51.5%)" stroke-width="1.5"></path><path d="M991.66 238.44L1011.23 410.75" stroke="hsl(228.5, 77.2%, 51.5%)" stroke-width="1.5"></path><path d="M991.66 238.44L1110.4 380.5" stroke="hsl(228.5, 77.2%, 51.5%)" stroke-width="1.5"></path><path d="M1011.23 410.75L1011.23 410.75" stroke="hsl(228.5, 77.2%, 51.5%)" stroke-width="1.5"></path><path d="M1011.23 410.75L1110.4 380.5" stroke="hsl(228.5, 77.2%, 51.5%)" stroke-width="1.5"></path><path d="M1011.23 410.75L947.23 493.95" stroke="hsl(228.5, 77.2%, 51.5%)" stroke-width="1.5"></path><path d="M1011.23 410.75L1161.67 513.82" stroke="hsl(228.5, 77.2%, 51.5%)" stroke-width="1.5"></path><path d="M947.23 493.95L947.23 493.95" stroke="hsl(228.5, 77.2%, 51.5%)" stroke-width="1.5"></path><path d="M1146.52 195.6L1146.52 195.6" stroke="hsl(228.5, 77.2%, 51.5%)" stroke-width="1.5"></path><path d="M1146.52 195.6L1274.1 243.46" stroke="hsl(228.5, 77.2%, 51.5%)" stroke-width="1.5"></path><path d="M1146.52 195.6L1245.99 86.36" stroke="hsl(228.5, 77.2%, 51.5%)" stroke-width="1.5"></path><path d="M1146.52 195.6L1110.4 380.5" stroke="hsl(228.5, 77.2%, 51.5%)" stroke-width="1.5"></path><path d="M1146.52 195.6L1263.31 389.45" stroke="hsl(228.5, 77.2%, 51.5%)" stroke-width="1.5"></path><path d="M1146.52 195.6L1011.23 410.75" stroke="hsl(228.5, 77.2%, 51.5%)" stroke-width="1.5"></path><path d="M1110.4 380.5L1110.4 380.5" stroke="hsl(228.5, 77.2%, 51.5%)" stroke-width="1.5"></path><path d="M1110.4 380.5L1161.67 513.82" stroke="hsl(228.5, 77.2%, 51.5%)" stroke-width="1.5"></path><path d="M1110.4 380.5L1263.31 389.45" stroke="hsl(228.5, 77.2%, 51.5%)" stroke-width="1.5"></path><path d="M1110.4 380.5L1249.82 509.31" stroke="hsl(228.5, 77.2%, 51.5%)" stroke-width="1.5"></path><path d="M1161.67 513.82L1161.67 513.82" stroke="hsl(228.5, 77.2%, 51.5%)" stroke-width="1.5"></path><path d="M1161.67 513.82L1249.82 509.31" stroke="hsl(228.5, 77.2%, 51.5%)" stroke-width="1.5"></path><path d="M1161.67 513.82L1263.31 389.45" stroke="hsl(228.5, 77.2%, 51.5%)" stroke-width="1.5"></path><path d="M1161.67 513.82L1290.67 657.63" stroke="hsl(228.5, 77.2%, 51.5%)" stroke-width="1.5"></path><path d="M1161.67 513.82L947.23 493.95" stroke="hsl(228.5, 77.2%, 51.5%)" stroke-width="1.5"></path><path d="M1252.08 -88.83L1252.08 -88.83" stroke="hsl(228.5, 77.2%, 51.5%)" stroke-width="1.5"></path><path d="M1252.08 -88.83L1245.99 86.36" stroke="hsl(228.5, 77.2%, 51.5%)" stroke-width="1.5"></path><path d="M1252.08 -88.83L1447.21 66.31" stroke="hsl(228.5, 77.2%, 51.5%)" stroke-width="1.5"></path><path d="M1252.08 -88.83L1146.52 195.6" stroke="hsl(228.5, 77.2%, 51.5%)" stroke-width="1.5"></path><path d="M1252.08 -88.83L1563.85 -48.54" stroke="hsl(228.5, 77.2%, 51.5%)" stroke-width="1.5"></path><path d="M1252.08 -88.83L1542.31 49.79" stroke="hsl(228.5, 77.2%, 51.5%)" stroke-width="1.5"></path><path d="M1245.99 86.36L1245.99 86.36" stroke="hsl(228.5, 77.2%, 51.5%)" stroke-width="1.5"></path><path d="M1245.99 86.36L1274.1 243.46" stroke="hsl(228.5, 77.2%, 51.5%)" stroke-width="1.5"></path><path d="M1245.99 86.36L1447.21 66.31" stroke="hsl(228.5, 77.2%, 51.5%)" stroke-width="1.5"></path><path d="M1274.1 243.46L1274.1 243.46" stroke="hsl(228.5, 77.2%, 51.5%)" stroke-width="1.5"></path><path d="M1249.82 509.31L1249.82 509.31" stroke="hsl(228.5, 77.2%, 51.5%)" stroke-width="1.5"></path><path d="M1249.82 509.31L1290.67 657.63" stroke="hsl(228.5, 77.2%, 51.5%)" stroke-width="1.5"></path><path d="M1249.82 509.31L1406.8 379.81" stroke="hsl(228.5, 77.2%, 51.5%)" stroke-width="1.5"></path><path d="M1249.82 509.31L1450.63 562.02" stroke="hsl(228.5, 77.2%, 51.5%)" stroke-width="1.5"></path><path d="M1290.67 657.63L1290.67 657.63" stroke="hsl(228.5, 77.2%, 51.5%)" stroke-width="1.5"></path><path d="M1290.67 657.63L1433.18 696.38" stroke="hsl(228.5, 77.2%, 51.5%)" stroke-width="1.5"></path><path d="M1290.67 657.63L1450.63 562.02" stroke="hsl(228.5, 77.2%, 51.5%)" stroke-width="1.5"></path><path d="M1290.67 657.63L1263.31 389.45" stroke="hsl(228.5, 77.2%, 51.5%)" stroke-width="1.5"></path><path d="M1447.21 66.31L1447.21 66.31" stroke="hsl(228.5, 77.2%, 51.5%)" stroke-width="1.5"></path><path d="M1447.21 66.31L1563.85 -48.54" stroke="hsl(228.5, 77.2%, 51.5%)" stroke-width="1.5"></path><path d="M1447.21 66.31L1578.17 233.05" stroke="hsl(228.5, 77.2%, 51.5%)" stroke-width="1.5"></path><path d="M1447.21 66.31L1274.1 243.46" stroke="hsl(228.5, 77.2%, 51.5%)" stroke-width="1.5"></path><path d="M1406.8 379.81L1406.8 379.81" stroke="hsl(228.5, 77.2%, 51.5%)" stroke-width="1.5"></path><path d="M1406.8 379.81L1543.56 395.95" stroke="hsl(228.5, 77.2%, 51.5%)" stroke-width="1.5"></path><path d="M1450.63 562.02L1450.63 562.02" stroke="hsl(228.5, 77.2%, 51.5%)" stroke-width="1.5"></path><path d="M1450.63 562.02L1433.18 696.38" stroke="hsl(228.5, 77.2%, 51.5%)" stroke-width="1.5"></path><path d="M1450.63 562.02L1566.75 666.96" stroke="hsl(228.5, 77.2%, 51.5%)" stroke-width="1.5"></path><path d="M1450.63 562.02L1406.8 379.81" stroke="hsl(228.5, 77.2%, 51.5%)" stroke-width="1.5"></path><path d="M1450.63 562.02L1543.56 395.95" stroke="hsl(228.5, 77.2%, 51.5%)" stroke-width="1.5"></path><path d="M1433.18 696.38L1433.18 696.38" stroke="hsl(228.5, 77.2%, 51.5%)" stroke-width="1.5"></path><path d="M1433.18 696.38L1566.75 666.96" stroke="hsl(228.5, 77.2%, 51.5%)" stroke-width="1.5"></path><path d="M1433.18 696.38L1249.82 509.31" stroke="hsl(228.5, 77.2%, 51.5%)" stroke-width="1.5"></path><path d="M1433.18 696.38L1406.8 379.81" stroke="hsl(228.5, 77.2%, 51.5%)" stroke-width="1.5"></path><path d="M1563.85 -48.54L1563.85 -48.54" stroke="hsl(228.5, 77.2%, 51.5%)" stroke-width="1.5"></path><path d="M1543.56 395.95L1543.56 395.95" stroke="hsl(228.5, 77.2%, 51.5%)" stroke-width="1.5"></path><path d="M1543.56 395.95L1566.75 666.96" stroke="hsl(228.5, 77.2%, 51.5%)" stroke-width="1.5"></path><path d="M1566.75 666.96L1566.75 666.96" stroke="hsl(228.5, 77.2%, 51.5%)" stroke-width="1.5"></path><circle r="25" cx="-99.73" cy="696.01" fill="url(&quot;#SvgjsRadialGradient1001&quot;)"></circle><circle r="25" cx="92.28" cy="671.07" fill="url(&quot;#SvgjsRadialGradient1001&quot;)"></circle><circle r="25" cx="554.59" cy="678.95" fill="url(&quot;#SvgjsRadialGradient1001&quot;)"></circle><circle r="25" cx="677.72" cy="548.8" fill="url(&quot;#SvgjsRadialGradient1001&quot;)"></circle><circle r="25" cx="666.01" cy="693.7" fill="url(&quot;#SvgjsRadialGradient1001&quot;)"></circle><circle r="25" cx="979.14" cy="658.2" fill="url(&quot;#SvgjsRadialGradient1001&quot;)"></circle><circle r="25" cx="1153.89" cy="-98.95" fill="url(&quot;#SvgjsRadialGradient1001&quot;)"></circle><circle r="25" cx="1263.31" cy="389.45" fill="url(&quot;#SvgjsRadialGradient1001&quot;)"></circle><circle r="25" cx="1454.02" cy="249.97" fill="url(&quot;#SvgjsRadialGradient1001&quot;)"></circle><circle r="25" cx="1542.31" cy="49.79" fill="url(&quot;#SvgjsRadialGradient1001&quot;)"></circle><circle r="25" cx="1578.17" cy="233.05" fill="url(&quot;#SvgjsRadialGradient1001&quot;)"></circle><circle r="5" cx="-39.45" cy="531.44" fill="#8b9ad9"></circle><circle r="5" cx="96.39" cy="504.16" fill="#8b9ad9"></circle><circle r="5" cx="238.91" cy="526.73" fill="#8b9ad9"></circle><circle r="5" cx="199.98" cy="642.22" fill="#8b9ad9"></circle><circle r="5" cx="393.18" cy="539.53" fill="#8b9ad9"></circle><circle r="5" cx="339.4" cy="647.01" fill="#8b9ad9"></circle><circle r="5" cx="552.01" cy="493.53" fill="#8b9ad9"></circle><circle r="5" cx="673.53" cy="398.89" fill="#8b9ad9"></circle><circle r="5" cx="808.47" cy="354.03" fill="#8b9ad9"></circle><circle r="5" cx="843.15" cy="510.08" fill="#8b9ad9"></circle><circle r="5" cx="862.12" cy="646.58" fill="#8b9ad9"></circle><circle r="5" cx="991.66" cy="238.44" fill="#8b9ad9"></circle><circle r="5" cx="1011.23" cy="410.75" fill="#8b9ad9"></circle><circle r="5" cx="947.23" cy="493.95" fill="#8b9ad9"></circle><circle r="5" cx="1146.52" cy="195.6" fill="#8b9ad9"></circle><circle r="5" cx="1110.4" cy="380.5" fill="#8b9ad9"></circle><circle r="5" cx="1161.67" cy="513.82" fill="#8b9ad9"></circle><circle r="5" cx="1252.08" cy="-88.83" fill="#8b9ad9"></circle><circle r="5" cx="1245.99" cy="86.36" fill="#8b9ad9"></circle><circle r="5" cx="1274.1" cy="243.46" fill="#8b9ad9"></circle><circle r="5" cx="1249.82" cy="509.31" fill="#8b9ad9"></circle><circle r="5" cx="1290.67" cy="657.63" fill="#8b9ad9"></circle><circle r="5" cx="1447.21" cy="66.31" fill="#8b9ad9"></circle><circle r="5" cx="1406.8" cy="379.81" fill="#8b9ad9"></circle><circle r="5" cx="1450.63" cy="562.02" fill="#8b9ad9"></circle><circle r="5" cx="1433.18" cy="696.38" fill="#8b9ad9"></circle><circle r="5" cx="1563.85" cy="-48.54" fill="#8b9ad9"></circle><circle r="5" cx="1543.56" cy="395.95" fill="#8b9ad9"></circle><circle r="5" cx="1566.75" cy="666.96" fill="#8b9ad9"></circle></g><defs><mask id="SvgjsMask1000"><rect width="1440" height="560" fill="#ffffff"></rect></mask><radialGradient id="SvgjsRadialGradient1001"><stop stop-color="#ffffff" offset="0.1"></stop><stop stop-color="#1735b3" offset="0.2"></stop><stop stop-color="rgba(23, 53, 179, 0)" offset="1"></stop></radialGradient></defs></svg>